<?xml version="1.0" encoding="UTF-8"?>
<svg xmlns="http://www.w3.org/2000/svg" width="800" height="1000" viewBox="0 0 800 1000">
<rect width="800" height="1000" fill="#FAF7F0"/>
<rect x="20" y="20" width="760" height="960" fill="none" stroke="#D5CFC7" stroke-width="2" rx="10"/>
<text x="400.0" y="70" text-anchor="middle" font-family="Georgia, serif" font-size="26" fill="#2C3E50" font-weight="bold">Flower Meanings</text>
<line x1="250" y1="85" x2="550" y2="85" stroke="#E8B4B8" stroke-width="2"/>
<rect x="50" y="120" width="700" height="110" fill="white" stroke="#E8E6E0" stroke-width="1" rx="8"/>
<rect x="65" y="135" width="8" height="80" rx="4" fill="#F2C849" opacity="0.7"/>
<text x="90" y="145" font-family="Georgia, serif" font-size="16" fill="#2C3E50" font-weight="bold">Mom</text>
<text x="90" y="165" font-family="Georgia, serif" font-size="13" fill="#555555">Daffodil (Narcissus)</text>
<text x="90" y="182" font-family="Georgia, serif" font-size="11" fill="#999999">March Birth Flower</text>
<text x="90" y="200" font-family="Georgia, serif" font-size="11" fill="#777777" font-style="italic">Symbolizes: Rebirth, new beginnings, hope</text>
<rect x="50" y="240" width="700" height="110" fill="white" stroke="#E8E6E0" stroke-width="1" rx="8"/>
<rect x="65" y="255" width="8" height="80" rx="4" fill="#7B6BCC" opacity="0.7"/>
<text x="90" y="265" font-family="Georgia, serif" font-size="16" fill="#2C3E50" font-weight="bold">Dad</text>
<text x="90" y="285" font-family="Georgia, serif" font-size="13" fill="#555555">Larkspur (Delphinium)</text>
<text x="90" y="302" font-family="Georgia, serif" font-size="11" fill="#999999">July Birth Flower</text>
<text x="90" y="320" font-family="Georgia, serif" font-size="11" fill="#777777" font-style="italic">Symbolizes: Positivity, dignity, grace</text>
<rect x="50" y="360" width="700" height="110" fill="white" stroke="#E8E6E0" stroke-width="1" rx="8"/>
<rect x="65" y="375" width="8" height="80" rx="4" fill="#D4A544" opacity="0.7"/>
<text x="90" y="385" font-family="Georgia, serif" font-size="16" fill="#2C3E50" font-weight="bold">Emma</text>
<text x="90" y="405" font-family="Georgia, serif" font-size="13" fill="#555555">Chrysanthemum (Chrysanthemum)</text>
<text x="90" y="422" font-family="Georgia, serif" font-size="11" fill="#999999">November Birth Flower</text>
<text x="90" y="440" font-family="Georgia, serif" font-size="11" fill="#777777" font-style="italic">Symbolizes: Loyalty, friendship, joy</text>
<rect x="50" y="480" width="700" height="110" fill="white" stroke="#E8E6E0" stroke-width="1" rx="8"/>
<rect x="65" y="495" width="8" height="80" rx="4" fill="#FFFFFF" opacity="0.7"/>
<text x="90" y="505" font-family="Georgia, serif" font-size="16" fill="#2C3E50" font-weight="bold">Liam</text>
<text x="90" y="525" font-family="Georgia, serif" font-size="13" fill="#555555">Lily of the Valley (Convallaria majalis)</text>
<text x="90" y="542" font-family="Georgia, serif" font-size="11" fill="#999999">May Birth Flower</text>
<text x="90" y="560" font-family="Georgia, serif" font-size="11" fill="#777777" font-style="italic">Symbolizes: Sweetness, humility, return of happiness</text>
<text x="400.0" y="950" text-anchor="middle" font-family="Georgia, serif" font-size="10" fill="#CCCCCC">Birth Flower Reference Card - Free Open Source Edition</text>
</svg>