<svg xmlns="http://www.w3.org/2000/svg" viewBox="0 0 100 100"><g stroke="#999" stroke-width="1" fill="none"><line x1="50" y1="50" x2="50" y2="5"/><line x1="50" y1="50" x2="95" y2="20"/><line x1="50" y1="50" x2="95" y2="80"/><line x1="50" y1="50" x2="50" y2="95"/><line x1="50" y1="50" x2="5" y2="80"/><line x1="50" y1="50" x2="5" y2="20"/><path d="M50 20 Q70 25 75 50"/><path d="M50 35 Q65 38 68 50"/><path d="M50 15 Q75 22 85 50 Q85 75 50 85 Q15 75 15 50 Q25 22 50 15"/><path d="M50 30 Q60 32 65 50"/></g></svg>